{"accessors":[{"bufferView":0,"byteOffset":0,"componentType":5126,"count":24,"max":[10,0.5,10],"min":[-10,-0.5,-10],"normalized":false,"type":"VEC3"},{"bufferView":1,"byteOffset":0,"componentType":5126,"count":24,"max":[1,0,1,1],"min":[-1,-0.000015,-1,1],"normalized":false,"type":"VEC4"},{"bufferView":2,"byteOffset":0,"componentType":5126,"count":24,"max":[1,1,1],"min":[-1,-1,-1],"normalized":false,"type":"VEC3"},{"bufferView":3,"byteOffset":0,"componentType":5126,"count":24,"max":[1,1],"min":[0,0],"normalized":false,"type":"VEC2"},{"bufferView":4,"byteOffset":0,"componentType":5125,"count":36,"max":[23],"min":[0],"normalized":false,"type":"SCALAR"},{"bufferView":5,"byteOffset":0,"componentType":5126,"count":1950,"max":[0.5,1,0.5],"min":[-0.5,-1,-0.5],"normalized":false,"type":"VEC3"},{"bufferView":6,"byteOffset":0,"componentType":5126,"count":1950,"max":[1,0,1,1],"min":[-1,-0.000022,-1,1],"normalized":false,"type":"VEC4"},{"bufferView":7,"byteOffset":0,"componentType":5126,"count":1950,"max":[1,1,1],"min":[-1,-1,-1],"normalized":false,"type":"VEC3"},{"bufferView":8,"byteOffset":0,"componentType":5126,"count":1950,"max":[1,1],"min":[0,0],"normalized":false,"type":"VEC2"},{"bufferView":9,"byteOffset":0,"componentType":5125,"count":10368,"max":[1949],"min":[0],"normalized":false,"type":"SCALAR"},{"bufferView":10,"byteOffset":0,"componentType":5126,"count":1950,"max":[0.5,1,0.5],"min":[-0.5,-1,-0.5],"normalized":false,"type":"VEC3"},{"bufferView":11,"byteOffset":0,"componentType":5126,"count":1950,"max":[1,0,1,1],"min":[-1,-0.000022,-1,1],"normalized":false,"type":"VEC4"},{"bufferView":12,"byteOffset":0,"componentType":5126,"count":1950,"max":[1,1,1],"min":[-1,-1,-1],"normalized":false,"type":"VEC3"},{"bufferView":13,"byteOffset":0,"componentType":5126,"count":1950,"max":[1,1],"min":[0,0],"normalized":false,"type":"VEC2"},{"bufferView":14,"byteOffset":0,"componentType":5125,"count":10368,"max":[1949],"min":[0],"normalized":false,"type":"SCALAR"},{"bufferView":15,"byteOffset":0,"componentType":5126,"count":522,"max":[0.5,1,0.5],"min":[-0.5,-1,-0.5],"normalized":false,"type":"VEC3"},{"bufferView":16,"byteOffset":0,"componentType":5126,"count":522,"max":[1,0,1,1],"min":[-1,-0.000022,-1,1],"normalized":false,"type":"VEC4"},{"bufferView":17,"byteOffset":0,"componentType":5126,"count":522,"max":[1,1,1],"min":[-1,-1,-1],"normalized":false,"type":"VEC3"},{"bufferView":18,"byteOffset":0,"componentType":5126,"count":522,"max":[1,1],"min":[0,0],"normalized":false,"type":"VEC2"},{"bufferView":19,"byteOffset":0,"componentType":5125,"count":2304,"max":[521],"min":[0],"normalized":false,"type":"SCALAR"},{"bufferView":20,"byteOffset":0,"componentType":5126,"count":24,"max":[0.5,0.5,0.5],"min":[-0.5,-0.5,-0.5],"normalized":false,"type":"VEC3"},{"bufferView":21,"byteOffset":0,"componentType":5126,"count":24,"max":[1,0,1,1],"min":[-1,-0.000015,-1,1],"normalized":false,"type":"VEC4"},{"bufferView":22,"byteOffset":0,"componentType":5126,"count":24,"max":[1,1,1],"min":[-1,-1,-1],"normalized":false,"type":"VEC3"},{"bufferView":23,"byteOffset":0,"componentType":5126,"count":24,"max":[1,1],"min":[0,0],"normalized":false,"type":"VEC2"},{"bufferView":24,"byteOffset":0,"componentType":5125,"count":36,"max":[23],"min":[0],"normalized":false,"type":"SCALAR"},{"bufferView":25,"byteOffset":0,"componentType":5126,"count":24,"max":[0.5,0.5,0.5],"min":[-0.5,-0.5,-0.5],"normalized":false,"type":"VEC3"},{"bufferView":26,"byteOffset":0,"componentType":5126,"count":24,"max":[1,0,1,1],"min":[-1,-0.000015,-1,1],"normalized":false,"type":"VEC4"},{"bufferView":27,"byteOffset":0,"componentType":5126,"count":24,"max":[1,1,1],"min":[-1,-1,-1],"normalized":false,"type":"VEC3"},{"bufferView":28,"byteOffset":0,"componentType":5126,"count":24,"max":[1,1],"min":[0,0],"normalized":false,"type":"VEC2"},{"bufferView":29,"byteOffset":0,"componentType":5125,"count":36,"max":[23],"min":[0],"normalized":false,"type":"SCALAR"}],"asset":{"generator":"Godot Engine v4.2.1.stable.official@b09f793f564a6c95dc76acc654b390e68441bd01","version":"2.0"},"bufferViews":[{"buffer":0,"byteLength":288,"byteOffset":0},{"buffer":0,"byteLength":384,"byteOffset":288},{"buffer":0,"byteLength":288,"byteOffset":672},{"buffer":0,"byteLength":192,"byteOffset":960},{"buffer":0,"byteLength":144,"byteOffset":1152},{"buffer":0,"byteLength":23400,"byteOffset":1296},{"buffer":0,"byteLength":31200,"byteOffset":24696},{"buffer":0,"byteLength":23400,"byteOffset":55896},{"buffer":0,"byteLength":15600,"byteOffset":79296},{"buffer":0,"byteLength":41472,"byteOffset":94896},{"buffer":0,"byteLength":23400,"byteOffset":136368},{"buffer":0,"byteLength":31200,"byteOffset":159768},{"buffer":0,"byteLength":23400,"byteOffset":190968},{"buffer":0,"byteLength":15600,"byteOffset":214368},{"buffer":0,"byteLength":41472,"byteOffset":229968},{"buffer":0,"byteLength":6264,"byteOffset":271440},{"buffer":0,"byteLength":8352,"byteOffset":277704},{"buffer":0,"byteLength":6264,"byteOffset":286056},{"buffer":0,"byteLength":4176,"byteOffset":292320},{"buffer":0,"byteLength":9216,"byteOffset":296496},{"buffer":0,"byteLength":288,"byteOffset":305712},{"buffer":0,"byteLength":384,"byteOffset":306000},{"buffer":0,"byteLength":288,"byteOffset":306384},{"buffer":0,"byteLength":192,"byteOffset":306672},{"buffer":0,"byteLength":144,"byteOffset":306864},{"buffer":0,"byteLength":288,"byteOffset":307008},{"buffer":0,"byteLength":384,"byteOffset":307296},{"buffer":0,"byteLength":288,"byteOffset":307680},{"buffer":0,"byteLength":192,"byteOffset":307968},{"buffer":0,"byteLength":144,"byteOffset":308160}],"buffers":[{"byteLength":308304,"uri":"main0.bin"}],"cameras":[{"perspective":{"yfov":1.30899691581726,"zfar":4000,"znear":0.0500000007450581},"type":"perspective"}],"extensions":{"OMI_collider":{"colliders":[{"size":[20,1,20],"type":"box"},{"height":2,"radius":0.5,"type":"capsule"},{"height":2,"radius":0.5,"type":"cylinder"},{"size":[1,1,1],"type":"box"},{"isTrigger":true,"size":[1,1,1],"type":"box"}]}},"extensionsUsed":["GODOT_single_root","OMI_collider","OMI_physics_body"],"materials":[{"extensions":{},"pbrMetallicRoughness":{"baseColorFactor":[0.99999988079071,0.99999988079071,0.99999988079071,1],"metallicFactor":0,"roughnessFactor":1}},{"extensions":{},"pbrMetallicRoughness":{"baseColorFactor":[0.99999988079071,0.99999988079071,0.99999988079071,1],"metallicFactor":0,"roughnessFactor":1}},{"extensions":{},"pbrMetallicRoughness":{"baseColorFactor":[0.99999988079071,0.99999988079071,0.99999988079071,1],"metallicFactor":0,"roughnessFactor":1}},{"extensions":{},"pbrMetallicRoughness":{"baseColorFactor":[0.99999988079071,0.99999988079071,0.99999988079071,1],"metallicFactor":0,"roughnessFactor":1}},{"extensions":{},"pbrMetallicRoughness":{"baseColorFactor":[0.99999988079071,0.99999988079071,0.99999988079071,1],"metallicFactor":0,"roughnessFactor":1}},{"extensions":{},"pbrMetallicRoughness":{"baseColorFactor":[0.99999988079071,0.99999988079071,0.99999988079071,1],"metallicFactor":0,"roughnessFactor":1}}],"meshes":[{"extras":{"targetNames":[]},"primitives":[{"attributes":{"NORMAL":2,"POSITION":0,"TANGENT":1,"TEXCOORD_0":3},"indices":4,"material":0,"mode":4}]},{"extras":{"targetNames":[]},"primitives":[{"attributes":{"NORMAL":7,"POSITION":5,"TANGENT":6,"TEXCOORD_0":8},"indices":9,"material":1,"mode":4}]},{"extras":{"targetNames":[]},"primitives":[{"attributes":{"NORMAL":12,"POSITION":10,"TANGENT":11,"TEXCOORD_0":13},"indices":14,"material":2,"mode":4}]},{"extras":{"targetNames":[]},"primitives":[{"attributes":{"NORMAL":17,"POSITION":15,"TANGENT":16,"TEXCOORD_0":18},"indices":19,"material":3,"mode":4}]},{"extras":{"targetNames":[]},"primitives":[{"attributes":{"NORMAL":22,"POSITION":20,"TANGENT":21,"TEXCOORD_0":23},"indices":24,"material":4,"mode":4}]},{"extras":{"targetNames":[]},"primitives":[{"attributes":{"NORMAL":27,"POSITION":25,"TANGENT":26,"TEXCOORD_0":28},"indices":29,"material":5,"mode":4}]}],"nodes":[{"children":[1,2,5,6,11,23],"extensions":{},"name":"main"},{"extensions":{},"name":"WorldEnvironment"},{"children":[3,4],"extensions":{"OMI_physics_body":{"type":"static"}},"name":"StaticBody3D"},{"extensions":{},"mesh":0,"name":"MeshInstance3D"},{"extensions":{"OMI_collider":{"collider":0}},"name":"CollisionShape3D"},{"extensions":{},"name":"Label"},{"children":[7,8,9],"extensions":{"OMI_physics_body":{"type":"character"}},"name":"CharacterBody3D","translation":[0,1.592129945755,3.90590000152588]},{"extensions":{},"mesh":1,"name":"MeshInstance3D2"},{"extensions":{"OMI_collider":{"collider":1}},"name":"CollisionShape3D2"},{"children":[10],"extensions":{},"name":"Neck"},{"camera":0,"extensions":{},"name":"Camera3D","translation":[0,0.362069994211197,0]},{"children":[12,15,18],"extensions":{},"name":"Light"},{"children":[13,14],"extensions":{"OMI_physics_body":{"type":"character"}},"name":"CharacterBody3D2","translation":[0,1.59279000759125,-2.24834990501404]},{"extensions":{},"mesh":2,"name":"MeshInstance3D3"},{"extensions":{"OMI_collider":{"collider":1}},"name":"CollisionShape3D3"},{"children":[16,17],"extensions":{"OMI_physics_body":{"type":"static"}},"name":"StaticBody3D2","translation":[2.20943999290466,1.63320994377136,0]},{"extensions":{},"mesh":3,"name":"MeshInstance3D4"},{"extensions":{"OMI_collider":{"collider":2}},"name":"CollisionShape3D4"},{"children":[19,20,21],"extensions":{"OMI_physics_body":{"type":"rigid"}},"name":"RigidBody3D2","translation":[0.82217401266098,1.02029001712799,0]},{"extensions":{},"mesh":4,"name":"MeshInstance3D5"},{"extensions":{"OMI_collider":{"collider":3}},"name":"CollisionShape3D5"},{"children":[22],"extensions":{"OMI_physics_body":{"type":"trigger"}},"name":"Area3D"},{"extensions":{"OMI_collider":{"collider":4}},"name":"CollisionShape3D6"},{"children":[24],"extensions":{},"name":"Dark"},{"children":[25,26,27],"extensions":{"OMI_physics_body":{"type":"rigid"}},"name":"RigidBody3D","translation":[-1.88450002670288,1.03605997562408,0]},{"extensions":{},"mesh":5,"name":"MeshInstance3D6"},{"extensions":{"OMI_collider":{"collider":3}},"name":"CollisionShape3D7"},{"children":[28],"extensions":{"OMI_physics_body":{"type":"trigger"}},"name":"Area3D2"},{"extensions":{"OMI_collider":{"collider":4}},"name":"CollisionShape3D8"}],"scene":0,"scenes":[{"nodes":[0]}]}